# xmcd
#
# Track frame offsets: 
#        150
#        12682
#        42747
#        54360
#        76167
#        88512
#        102672
#        125955
#
# Disc length: 1917 seconds
#
# Revision: 4
# Processed by: cddbd v1.5.2PL0 Copyright (c) Steve Scherf et al.
# Submitted via: ExactAudioCopy v0.99pb4
#
DISCID=6d077b08
DTITLE=Living Blues - Hell's Session
DYEAR=1969
DGENRE=Rock
TTITLE0=Waitin' On You
TTITLE1=One Night Blues
TTITLE2=Bowlegged Woman
TTITLE3=Hell's Session
TTITLE4=Big Road Blues
TTITLE5=Black Panther
TTITLE6=Worried Dreams
TTITLE7=Big Black Train
EXTD=
EXTT0=
EXTT1=
EXTT2=
EXTT3=
EXTT4=
EXTT5=
EXTT6=
EXTT7=
PLAYORDER=
